{"title":"Jack.the.ripper.new.suspect.revealed.pdtv.x264-barge","uid":12207559,"size":312234246,"categoryP":"video","categoryS":"tv_shows","magnet":"?xt=urn:btih:ce30eab63ea96477772968ff4fb83af825af08cb&amp;dn=Jack.the.ripper.new.suspect.revealed.pdtv.x264-barge&amp;tr=udp%3A%2F%2Ftracker.openbittorrent.com%3A80&amp;tr=udp%3A%2F%2Fopen.demonii.com%3A1337&amp;tr=udp%3A%2F%2Ftracker.coppersurfer.tk%3A6969&amp;tr=udp%3A%2F%2Fexodus.desync.com%3A6969","seeders":1,"leechers":0,"uploader":"toots2boots","files":1,"time":1439018781,"description":"Jack The Ripper: New Suspect Revealed\n\nLondon, 1888. A killer known by the name of Jack the Ripper brutally murders five prostitutes. Though the killings make the world's headlines, the slayer's identity remains a mystery for over 120 years. Retired UK murder squad detective Trevor Marriott now hopes to crack the case with the aid of an international team of experts: a criminal psychologist, a forensic scientist and a pathologist. And he's in luck: they find new evidence that leads to a German sailor and to New York's Lower East Side...\n\nGeneral\nComplete name                            : M:PostsJack.the.ripper.new.suspect.revealed.pdtv.x264-bargejack.the.ripper.new.suspect.revealed.pdtv.x264-barge.mp4\nFormat                                   : MPEG-4\nFormat profile                           : Base Media\nCodec ID                                 : isom\nFile size                                : 298 MiB\nDuration                                 : 44mn 59s\nOverall bit rate mode                    : Variable\nOverall bit rate                         : 925 Kbps\n\nVideo\nID                                       : 1\nFormat                                   : AVC\nFormat/Info                              : Advanced Video Codec\nFormat profile                           : &lt;a class=&quot;__cf_email__&quot; href=&quot;/cdn-cgi/l/email-protection&quot; data-cfemail=&quot;e4ac8d838ca4a8d7cad5&quot;&gt;[email&amp;#160;protected]&lt;/a&gt;&lt;script data-cfhash='f9e31' type=&quot;text/javascript&quot;&gt;\n/* &lt;![CDATA[ */!function(){try{var t=&quot;currentScript&quot;in document?document.currentScript:function(){for(var t=document.getElementsByTagName(&quot;script&quot;),e=t.length;e--;)if(t[e].getAttribute(&quot;data-cfhash&quot;))return t[e]}();if(t&amp;&amp;t.previousSibling){var e,r,n,i,c=t.previousSibling,a=c.getAttribute(&quot;data-cfemail&quot;);if(a){for(e=&quot;&quot;,r=parseInt(a.substr(0,2),16),n=2;a.length-n;n+=2)i=parseInt(a.substr(n,2),16)^r,e+=String.fromCharCode(i);e=document.createTextNode(e),c.parentNode.replaceChild(e,c)}t.parentNode.removeChild(t);}}catch(u){}}()/* ]]&gt; */&lt;/script&gt;\nFormat settings, CABAC                   : Yes\nFormat settings, ReFrames                : 5 frames\nCodec ID                                 : avc1\nCodec ID/Info                            : Advanced Video Coding\nDuration                                 : 44mn 59s\nBit rate                                 : 798 Kbps\nMaximum bit rate                         : 5 097 Kbps\nWidth                                    : 714 pixels\nHeight                                   : 392 pixels\nDisplay aspect ratio                     : 16:9\nFrame rate mode                          : Constant\nFrame rate                               : 25.000 fps\nColor space                              : YUV\nChroma subsampling                       : 4:2:0\nBit depth                                : 8 bits\nScan type                                : Progressive\nBits/(Pixel*Frame)                       : 0.114\nStream size                              : 257 MiB (86%)\nTitle                                    : Video\nWriting library                          : x264 core 146 r2538 121396c\nEncoding settings                        : cabac=1 / ref=5 / deblock=1:0:0 / analyse=0x3:0x113 / me=umh / subme=8 / psy=1 / psy_rd=1.00:0.00 / mixed_ref=1 / me_range=16 / chroma_me=1 / trellis=1 / 8x8dct=1 / cqm=0 / deadzone=21,11 / fast_pskip=1 / chroma_qp_offset=-2 / threads=12 / lookahead_threads=2 / sliced_threads=0 / nr=0 / decimate=1 / interlaced=0 / bluray_compat=0 / constrained_intra=0 / bframes=3 / b_pyramid=2 / b_adapt=2 / b_bias=0 / direct=3 / weightb=1 / open_gop=0 / weightp=2 / keyint=250 / keyint_min=25 / scenecut=40 / intra_refresh=0 / rc_lookahead=50 / rc=crf / mbtree=1 / crf=21.0 / qcomp=0.60 / qpmin=0 / qpmax=69 / qpstep=4 / ip_ratio=1.40 / aq=1:1.00\nMatrix coefficients                      : BT.709-5, BT.1361, IEC 61966-2-4 709, SMPTE RP177\n\nAudio\nID                                       : 2\nFormat                                   : AAC\nFormat/Info                              : Advanced Audio Codec\nFormat profile                           : LC\nCodec ID                                 : 40\nDuration                                 : 44mn 59s\nBit rate mode                            : Variable\nBit rate                                 : 123 Kbps\nMaximum bit rate                         : 168 Kbps\nChannel(s)                               : 2 channels\nChannel positions                        : Front: L R\nSampling rate                            : 48.0 KHz\nCompression mode                         : Lossy\nStream size                              : 39.7 MiB (13%)","torrent":{"xt":"urn:btih:ce30eab63ea96477772968ff4fb83af825af08cb","amp;dn":"Jack.the.ripper.new.suspect.revealed.pdtv.x264-barge","amp;tr":["udp%3A%2F%2Ftracker.openbittorrent.com%3A80","udp%3A%2F%2Fopen.demonii.com%3A1337","udp%3A%2F%2Ftracker.coppersurfer.tk%3A6969","udp%3A%2F%2Fexodus.desync.com%3A6969"],"infoHash":"ce30eab63ea96477772968ff4fb83af825af08cb","infoHashBuffer":{"type":"Buffer","data":[206,48,234,182,62,169,100,119,119,41,104,255,79,184,58,248,37,175,8,203]},"announce":[],"urlList":[]}}